<?xml version="1.0" encoding="UTF-8" standalone="no"?>
<svg xmlns="http://www.w3.org/2000/svg" width="60" height="60" viewBox="0 0 60 60">
  <rect width="60" height="60" rx="5" fill="#e6e6fa" stroke="#9370db" stroke-width="2"/>
  <text x="30" y="38" font-family="Arial" font-size="30" text-anchor="middle" fill="#9370db">?</text>
  <path d="M30,15 C25,15 21,19 21,24 L27,24 C27,22 28,21 30,21 C32,21 33,22 33,24 C33,25 32,26 31,27 L28,30 C27,31 26,32 26,34 L26,36 L34,36 L34,34 C34,33 35,32 36,31 L39,28 C40,27 41,25 41,24 C41,19 36,15 30,15 Z" fill="#9370db"/>
</svg>
