<?xml version="1.0" encoding="UTF-8" standalone="no"?>
<svg xmlns="http://www.w3.org/2000/svg" width="24" height="24" viewBox="0 0 24 24">
  <linearGradient id="instagram-gradient" x1="0%" y1="100%" x2="100%" y2="0%">
    <stop offset="0%" style="stop-color:#ffe7de"/>
    <stop offset="25%" style="stop-color:#fcd1d7"/>
    <stop offset="50%" style="stop-color:#e9b1cd"/>
    <stop offset="75%" style="stop-color:#c3829e"/>
    <stop offset="100%" style="stop-color:#562135"/>
  </linearGradient>
  <path d="M12,2.2 C15.2,2.2 15.6,2.2 16.9,2.3 C18.1,2.4 18.8,2.6 19.3,2.8 C19.9,3 20.4,3.3 20.9,3.8 C21.4,4.3 21.7,4.8 21.9,5.4 C22.1,5.9 22.3,6.6 22.4,7.8 C22.5,9.1 22.5,9.5 22.5,12.7 C22.5,15.9 22.5,16.3 22.4,17.6 C22.3,18.8 22.1,19.5 21.9,20 C21.7,20.6 21.4,21.1 20.9,21.6 C20.4,22.1 19.9,22.4 19.3,22.6 C18.8,22.8 18.1,23 16.9,23.1 C15.6,23.2 15.2,23.2 12,23.2 C8.8,23.2 8.4,23.2 7.1,23.1 C5.9,23 5.2,22.8 4.7,22.6 C4.1,22.4 3.6,22.1 3.1,21.6 C2.6,21.1 2.3,20.6 2.1,20 C1.9,19.5 1.7,18.8 1.6,17.6 C1.5,16.3 1.5,15.9 1.5,12.7 C1.5,9.5 1.5,9.1 1.6,7.8 C1.7,6.6 1.9,5.9 2.1,5.4 C2.3,4.8 2.6,4.3 3.1,3.8 C3.6,3.3 4.1,3 4.7,2.8 C5.2,2.6 5.9,2.4 7.1,2.3 C8.4,2.2 8.8,2.2 12,2.2 Z M12,0 C8.7,0 8.3,0 7,0.1 C5.7,0.2 4.8,0.4 4,0.8 C3.2,1.2 2.5,1.6 1.8,2.3 C1.1,3 0.7,3.7 0.3,4.5 C-0.1,5.3 -0.3,6.2 -0.4,7.5 C-0.5,8.8 -0.5,9.2 -0.5,12.5 C-0.5,15.8 -0.5,16.2 -0.4,17.5 C-0.3,18.8 -0.1,19.7 0.3,20.5 C0.7,21.3 1.1,22 1.8,22.7 C2.5,23.4 3.2,23.8 4,24.2 C4.8,24.6 5.7,24.8 7,24.9 C8.3,25 8.7,25 12,25 C15.3,25 15.7,25 17,24.9 C18.3,24.8 19.2,24.6 20,24.2 C20.8,23.8 21.5,23.4 22.2,22.7 C22.9,22 23.3,21.3 23.7,20.5 C24.1,19.7 24.3,18.8 24.4,17.5 C24.5,16.2 24.5,15.8 24.5,12.5 C24.5,9.2 24.5,8.8 24.4,7.5 C24.3,6.2 24.1,5.3 23.7,4.5 C23.3,3.7 22.9,3 22.2,2.3 C21.5,1.6 20.8,1.2 20,0.8 C19.2,0.4 18.3,0.2 17,0.1 C15.7,0 15.3,0 12,0 Z" fill="url(#instagram-gradient)"/>
  <path d="M12,6.1 C8.6,6.1 5.9,8.8 5.9,12.2 C5.9,15.6 8.6,18.3 12,18.3 C15.4,18.3 18.1,15.6 18.1,12.2 C18.1,8.8 15.4,6.1 12,6.1 Z M12,16.1 C9.8,16.1 8.1,14.4 8.1,12.2 C8.1,10 9.8,8.3 12,8.3 C14.2,8.3 15.9,10 15.9,12.2 C15.9,14.4 14.2,16.1 12,16.1 Z" fill="url(#instagram-gradient)"/>
  <circle cx="18.4" cy="5.9" r="1.2" fill="url(#instagram-gradient)"/>
</svg>
