<?xml version="1.0" encoding="UTF-8" standalone="no"?>
<svg xmlns="http://www.w3.org/2000/svg" width="24" height="24" viewBox="0 0 24 24">
  <path d="M22,5.8 C21.2,6.1 20.4,6.3 19.5,6.4 C20.4,5.9 21.1,5 21.4,4 C20.6,4.5 19.7,4.8 18.8,5 C18,4.1 16.9,3.5 15.7,3.5 C13.3,3.5 11.5,5.3 11.5,7.7 C11.5,8 11.5,8.3 11.6,8.6 C8.1,8.4 5,6.8 2.9,4.3 C2.6,4.9 2.4,5.5 2.4,6.2 C2.4,7.5 3.1,8.6 4.1,9.3 C3.4,9.3 2.8,9.1 2.2,8.8 L2.2,8.9 C2.2,11 3.6,12.7 5.4,13 C5.1,13.1 4.8,13.1 4.4,13.1 C4.2,13.1 3.9,13.1 3.7,13 C4.2,14.7 5.8,15.9 7.6,15.9 C6.1,17 4.2,17.7 2.2,17.7 C1.9,17.7 1.6,17.7 1.4,17.6 C3.2,18.8 5.3,19.5 7.5,19.5 C15.7,19.5 20.1,12.7 20.1,6.8 C20.1,6.6 20.1,6.4 20.1,6.2 C21,5.6 21.7,4.9 22.2,4.1 L22,5.8 Z" fill="#562135"/>
</svg>
