<?xml version="1.0" encoding="UTF-8" standalone="no"?>
<svg xmlns="http://www.w3.org/2000/svg" width="24" height="24" viewBox="0 0 24 24">
  <path d="M22.5,6.7 C22.3,5.9 21.7,5.3 20.9,5.1 C19.3,4.7 12,4.7 12,4.7 C12,4.7 4.7,4.7 3.1,5.1 C2.3,5.3 1.7,5.9 1.5,6.7 C1.1,8.3 1.1,12 1.1,12 C1.1,12 1.1,15.7 1.5,17.3 C1.7,18.1 2.3,18.7 3.1,18.9 C4.7,19.3 12,19.3 12,19.3 C12,19.3 19.3,19.3 20.9,18.9 C21.7,18.7 22.3,18.1 22.5,17.3 C22.9,15.7 22.9,12 22.9,12 C22.9,12 22.9,8.3 22.5,6.7 Z M9.9,15.1 L9.9,8.9 L15.6,12 L9.9,15.1 Z" fill="#FF0000"/>
</svg>
